<?xml version="1.0" encoding="UTF-8"?>
<!DOCTYPE svg PUBLIC "-//W3C//DTD SVG 1.1//EN" "http://www.w3.org/Graphics/SVG/1.1/DTD/svg11.dtd">
<!-- Creator: CorelDRAW 2017 -->
<svg xmlns="http://www.w3.org/2000/svg" xml:space="preserve" width="279.4mm" height="215.9mm" version="1.1" style="shape-rendering:geometricPrecision; text-rendering:geometricPrecision; image-rendering:optimizeQuality; fill-rule:evenodd; clip-rule:evenodd"
viewBox="0 0 27940 21590"
 xmlns:xlink="http://www.w3.org/1999/xlink">
 <defs>
  <style type="text/css">
   <![CDATA[
    .str0 {stroke:#E6E6E6;stroke-width:7.62}
    .fil3 {fill:black}
    .fil2 {fill:black}
    .fil0 {fill:#FF6600}
    .fil1 {fill:black;fill-rule:nonzero}
   ]]>
  </style>
 </defs>
 <g id="Capa_x0020_1">
  <metadata id="CorelCorpID_0Corel-Layer"/>
  <g id="_161774181376">
   <g>
    <path class="fil0 str0" d="M13944 9689c611,0 1106,495 1106,1106 0,611 -495,1106 -1106,1106 -611,0 -1106,-495 -1106,-1106 0,-611 495,-1106 1106,-1106zm0 65c575,0 1041,466 1041,1041 0,575 -466,1041 -1041,1041 -575,0 -1041,-466 -1041,-1041 0,-575 466,-1041 1041,-1041z"/>
    <path class="fil1" d="M14446 11428l-263 0 0 -89 263 0 0 89zm104 8l-79 0 0 -122 -314 0 0 122 -79 0 0 -619 471 0 0 619zm-1006 -943l-112 0 0 -89 112 0 0 89zm25 -115l-163 0 0 140 163 0 0 -140zm177 115l-112 0 0 -89 112 0 0 89zm25 -115l-163 0 0 140 163 0 0 -140zm177 115l-112 0 0 -89 112 0 0 89zm25 -115l-163 0 0 140 163 0 0 -140zm-430 301l-112 0 0 -89 112 0 0 89zm25 -115l-163 0 0 140 163 0 0 -140zm-25 301l-112 0 0 -89 112 0 0 89zm25 -115l-163 0 0 140 163 0 0 -140zm-25 301l-112 0 0 -89 112 0 0 89zm25 -115l-163 0 0 140 163 0 0 -140zm-25 301l-112 0 0 -89 112 0 0 89zm25 -115l-163 0 0 140 163 0 0 -140zm177 -444l-112 0 0 -89 112 0 0 89zm25 -115l-163 0 0 140 163 0 0 -140zm-25 301l-112 0 0 -89 112 0 0 89zm25 -115l-163 0 0 140 163 0 0 -140zm-25 301l-112 0 0 -89 112 0 0 89zm25 -115l-163 0 0 140 163 0 0 -140zm-25 301l-112 0 0 -89 112 0 0 89zm25 -115l-163 0 0 140 163 0 0 -140zm177 -444l-112 0 0 -89 112 0 0 89zm25 -115l-163 0 0 140 163 0 0 -140zm-25 301l-112 0 0 -89 112 0 0 89zm25 -115l-163 0 0 140 163 0 0 -140zm-25 301l-112 0 0 -89 112 0 0 89zm25 -115l-163 0 0 140 163 0 0 -140zm-25 301l-112 0 0 -89 112 0 0 89zm25 -115l-163 0 0 140 163 0 0 -140zm-430 -820l-112 0 0 -89 112 0 0 89zm25 -115l-163 0 0 140 163 0 0 -140zm177 115l-112 0 0 -89 112 0 0 89zm25 -115l-163 0 0 140 163 0 0 -140zm177 115l-112 0 0 -89 112 0 0 89zm25 -115l-163 0 0 140 163 0 0 -140zm-153 1240l-263 0 0 -89 263 0 0 89zm25 -115l-314 0 0 122 -173 0 0 -1289 660 0 0 1289 -173 0 0 -122zm637 -100l-112 0 0 -89 112 0 0 89zm25 -115l-163 0 0 140 163 0 0 -140zm-33 -112l-310 0 0 -89 310 0 0 89zm25 -115l-360 0 0 140 360 0 0 -140zm99 -106l-530 0 0 -670 -761 0 0 1361 -123 0c15,18 31,34 48,51l1417 0c16,-16 32,-33 48,-51l-99 0 0 -692z"/>
   </g>
   <g>
    <path class="fil0" d="M7636 9689c611,0 1106,495 1106,1106 0,611 -495,1106 -1106,1106 -611,0 -1106,-495 -1106,-1106 0,-611 495,-1106 1106,-1106zm0 65c575,0 1041,466 1041,1041 0,575 -466,1041 -1041,1041 -575,0 -1041,-466 -1041,-1041 0,-575 466,-1041 1041,-1041z"/>
    <path class="fil1" d="M6904 11342l0 -194c84,-9 145,-55 204,-99 13,-10 27,-20 41,-29 53,-37 114,-71 202,-71 44,0 80,0 109,1l226 0c15,0 27,12 27,27 0,15 -12,27 -27,27l-211 0c-2,0 -3,0 -5,0 -59,10 -102,60 -102,120 0,44 24,85 63,106 2,1 5,2 7,3 7,2 39,10 82,22 26,6 52,13 78,21l6 2c127,34 196,52 211,55 2,0 4,1 6,1 16,1 30,0 42,-3 3,-1 7,-2 10,-4l332 -215c0,0 1,-1 1,-1l58 -42c0,0 1,0 1,-1 2,-1 4,-2 5,-3 4,-2 6,-3 9,-4 2,-1 5,-1 7,-2 6,-1 13,-1 19,0 1,0 3,0 4,1 33,3 58,30 58,63 0,17 -7,33 -19,45 0,0 0,0 -1,1 -5,5 -10,8 -15,11 -1,1 -3,2 -4,3l-23 17 -517 375c-1,0 -2,1 -2,1 -15,5 -27,6 -41,3l-2 0c-342,-87 -588,-149 -710,-179l-11 -4c-1,0 -2,-1 -3,-1 -47,-12 -86,-19 -116,-23l0 -29zm415 -897l-17 -17c-16,-16 -16,-41 0,-57l309 -309c1,-1 1,-2 2,-2l38 -38c15,-15 42,-15 57,0l37 37c1,1 1,2 2,3l309 309c16,16 16,41 0,57l-17 17 -337 -337c-6,-6 -14,-9 -23,-9 -9,0 -17,3 -23,9l-337 337zm618 273c0,20 -16,36 -36,36l-83 0c2,-5 4,-10 4,-15l0 -266c0,-18 -14,-32 -32,-32l-221 0c-18,0 -32,14 -32,32l0 266c0,5 1,11 4,15l-83 0c-20,0 -36,-16 -36,-36l0 -284 258 -258 165 165 0 0 93 93 0 284zm-180 -12l-157 0 0 -202 157 0 0 202zm-301 112l444 0c55,0 100,-45 100,-100l0 -219 15 15c13,13 33,13 46,0l40 -40 0 0c41,-41 41,-107 0,-148l-307 -307c-1,-1 -1,-2 -2,-3l-40 -40c-20,-20 -46,-31 -74,-31 -28,0 -54,11 -74,31l-40 40c-1,1 -1,2 -2,2l-307 307c-41,41 -41,107 0,148l40 40c6,6 15,9 23,9 8,0 16,-3 23,-9l15 -15 0 219c0,55 45,100 100,100zm-586 615c26,0 72,8 131,23l11 4c1,0 2,1 3,1 121,30 367,92 711,180l2 1c1,0 1,0 2,0 10,2 19,3 29,3 16,0 31,-3 48,-9 1,0 1,0 1,-1l4 -2c3,-1 6,-3 9,-5l542 -393c10,-6 20,-13 29,-21 0,0 1,-1 1,-1 24,-24 38,-56 38,-90 0,-66 -50,-120 -115,-127 -13,-2 -25,-3 -40,-1 -6,1 -11,2 -16,4 -6,2 -13,4 -19,8 -3,2 -7,3 -10,6 -1,1 -2,1 -3,2l-59 43 -326 211c-4,1 -10,1 -16,1 -19,-5 -89,-23 -207,-54l-5 -1c-27,-8 -54,-15 -80,-21 -36,-10 -65,-17 -77,-20 -17,-10 -27,-29 -27,-48 0,-27 19,-51 46,-56l208 0c51,0 92,-41 92,-92 0,-51 -41,-92 -92,-92l-225 0c-29,-1 -65,-1 -110,-1 -106,0 -180,42 -239,83 -14,10 -28,20 -42,31 -63,47 -118,88 -199,88 -10,0 -20,5 -26,13 -5,7 -7,16 -6,24l0 253c0,2 0,4 0,6l0 20c0,18 14,32 32,32z"/>
   </g>
   <g>
    <path class="fil0" d="M17097 9689c611,0 1106,495 1106,1106 0,611 -495,1106 -1106,1106 -611,0 -1106,-495 -1106,-1106 0,-611 495,-1106 1106,-1106zm0 65c575,0 1041,466 1041,1041 0,575 -466,1041 -1041,1041 -575,0 -1041,-466 -1041,-1041 0,-575 466,-1041 1041,-1041z"/>
    <path class="fil1" d="M17189 10947c16,-39 39,-74 69,-104 11,-12 13,-29 4,-43l-29 -43 70 -48 29 43c9,13 26,18 41,12 39,-16 80,-25 122,-25 16,0 30,-12 33,-28l10 -51 83 16 -10 51c-3,16 5,32 20,38 39,16 74,39 104,69 12,11 29,13 43,4l43 -29 48 70 -43 29c-13,9 -19,26 -12,41 16,39 25,80 25,122 0,16 12,30 28,33l51 10 -16 83 -51 -10c-16,-3 -32,5 -38,20 -16,39 -39,74 -69,104 -11,12 -13,29 -4,43l29 43 -70 48 -29 -43c-9,-13 -26,-18 -41,-12 -39,16 -80,25 -122,25 -16,0 -30,12 -33,28l-10 51 -83 -16 10 -51c3,-16 -5,-32 -20,-38 -39,-16 -74,-39 -104,-69 -12,-11 -29,-13 -43,-4l-43 29 -48 -70 43 -29c13,-9 18,-26 12,-41 -16,-39 -25,-80 -25,-122 0,-16 -12,-30 -28,-33l-51 -10 16 -83 51 10c16,3 32,-5 38,-20zm139 97c9,-46 35,-86 74,-113 30,-20 64,-31 99,-31 11,0 22,1 33,3 95,18 158,111 140,206 -9,46 -35,86 -74,113 -39,26 -86,36 -132,27l0 0c-46,-9 -86,-35 -113,-74 -26,-39 -36,-86 -27,-132zm127 273l0 0c15,3 31,4 46,4 115,0 218,-82 240,-199 25,-132 -62,-261 -194,-286 -64,-12 -129,1 -183,38 -54,37 -90,92 -103,156 -12,64 1,129 38,183 37,54 92,90 156,103zm-587 -829c14,96 -53,186 -149,200 -96,14 -186,-53 -200,-149 -14,-96 53,-186 150,-200 8,-1 17,-2 25,-2 86,0 162,64 174,151zm-175 269c11,0 23,-1 35,-3 133,-19 226,-143 207,-277 -19,-133 -143,-226 -277,-207 -133,19 -226,143 -207,277 17,122 122,210 242,210zm-266 -497c13,10 31,9 43,-2 32,-28 68,-49 108,-64 15,-5 24,-21 22,-37l-7 -51 84 -12 7 51c2,16 15,28 32,29 42,3 83,13 121,31 15,7 32,2 42,-10l31 -41 68 51 -31 41c-10,13 -9,31 2,43 28,32 49,68 64,108 6,15 21,24 37,22l51 -7 12 84 -51 7c-16,2 -28,15 -29,32 -3,42 -13,83 -31,121 -7,15 -2,32 10,42l41 31 -51 68 -41 -31c-13,-10 -31,-9 -43,2 -32,28 -68,49 -107,64 -15,5 -24,21 -22,37l7 51 -84 12 -7 -51c-2,-16 -15,-28 -32,-29 -42,-3 -83,-13 -121,-31 -5,-2 -10,-3 -14,-3 -10,0 -21,5 -27,14l-31 41 -68 -51 31 -41c10,-13 9,-31 -2,-43 -28,-32 -50,-68 -64,-107 -5,-15 -21,-24 -37,-22l-51 7 -12 -84 51 -7c16,-2 28,-15 29,-32 3,-42 13,-83 31,-121 7,-15 2,-32 -10,-42l-41 -31 51 -68 41 31zm-202 397c3,19 20,32 38,29l58 -8c13,29 29,57 49,82l-35 47c-5,7 -8,16 -6,25 1,9 6,17 13,22l122 92c15,11 36,8 48,-7l35 -47c30,12 61,19 92,24l8 58c1,9 6,17 13,22 6,4 13,7 20,7 2,0 3,0 5,0l151 -22c19,-3 31,-20 29,-38l-8 -58c29,-13 57,-29 82,-49l47 35c15,11 36,8 48,-7l92 -122c11,-15 8,-36 -7,-48l-47 -35c12,-30 19,-61 24,-92l58 -8c9,-1 17,-6 22,-13 5,-7 8,-16 6,-25l-22 -151c-3,-19 -20,-31 -38,-29l-58 8c-13,-29 -29,-56 -49,-82l35 -47c5,-7 8,-16 6,-25 -1,-9 -6,-17 -13,-22l-122 -92c-7,-5 -16,-8 -25,-6 -9,1 -17,6 -22,13l-35 47c-30,-12 -61,-19 -92,-24l-8 -58c-3,-19 -20,-31 -38,-29l-151 22c-9,1 -17,6 -22,13 -5,7 -8,16 -6,25l8 58c-29,13 -57,29 -82,49l-47 -35c-7,-5 -16,-8 -25,-6 -9,1 -17,6 -22,13l-92 122c-5,7 -8,16 -6,25 1,9 6,17 13,22l47 35c-12,30 -19,61 -24,92l-58 8c-9,1 -17,6 -22,13 -5,7 -8,16 -6,25l22 151zm854 227c-9,-2 -18,0 -25,5 -7,5 -13,13 -14,22l-29 150c-4,18 9,36 27,40l58 11c3,32 9,63 19,93l-49 33c-7,5 -13,13 -14,22 -2,9 0,18 5,25l86 126c5,7 13,13 22,14 9,2 18,0 25,-5l49 -33c24,21 51,38 80,52l-11 58c-4,18 9,36 27,40l150 29c2,0 4,1 6,1 16,0 30,-11 33,-28l11 -58c32,-3 63,-9 93,-19l33 49c5,7 13,13 22,14 9,2 18,0 25,-5l126 -86c16,-11 20,-32 9,-47l-33 -49c21,-24 38,-51 52,-80l58 11c18,3 36,-9 40,-27l29 -150c2,-9 0,-18 -5,-25 -5,-7 -13,-13 -22,-14l-58 -11c-3,-32 -9,-63 -19,-93l49 -33c16,-11 20,-32 9,-47l-86 -126c-5,-7 -13,-13 -22,-14 -9,-2 -18,0 -25,5l-49 33c-24,-21 -51,-38 -80,-52l11 -58c4,-18 -9,-36 -27,-40l-150 -29c-9,-2 -18,0 -25,5 -7,5 -13,13 -14,22l-11 58c-32,3 -63,9 -93,19l-33 -49c-5,-7 -13,-13 -22,-14 -9,-2 -18,0 -26,5l-126 86c-7,5 -13,13 -14,22 -2,9 0,18 5,25l33 49c-21,24 -38,51 -52,80l-58 -11z"/>
   </g>
   <g>
    <path class="fil0" d="M10790 9689c611,0 1106,495 1106,1106 0,611 -495,1106 -1106,1106 -611,0 -1106,-495 -1106,-1106 0,-611 495,-1106 1106,-1106zm0 65c575,0 1041,466 1041,1041 0,575 -466,1041 -1041,1041 -575,0 -1041,-466 -1041,-1041 0,-575 466,-1041 1041,-1041z"/>
    <path class="fil1" d="M11517 11197c-30,4 -69,12 -115,24 -1,0 -2,1 -3,1l-10 4c-166,44 -513,138 -705,190l-2 0c-14,3 -26,2 -39,-3l-3 -1 -536 -415c-1,-1 -3,-2 -4,-3 -5,-3 -10,-7 -15,-12 0,0 0,-1 -1,-1 -13,-13 -19,-31 -19,-49 0,-36 25,-66 58,-69 1,0 3,0 4,-1 6,-1 13,-1 18,0 3,0 5,1 7,2 3,1 5,2 8,4 2,1 4,2 6,3 0,0 0,0 1,0l58 45c0,0 1,1 1,1l330 228c3,2 7,4 10,5 12,3 26,4 42,3 2,0 4,0 6,-1 15,-4 86,-23 210,-58l6 -2c27,-8 52,-15 78,-22l82 -23c3,-1 5,-2 8,-3 38,-23 62,-65 62,-110 0,-62 -43,-115 -101,-125 -2,0 -4,0 -6,0l-210 0c-15,0 -27,-14 -27,-31 0,-17 12,-31 27,-31l224 0c29,-1 64,-1 108,-1 87,0 147,36 200,75 14,10 27,21 40,31 59,47 120,95 204,105l0 208 0 31c0,0 0,1 0,1zm-507 -1075c136,-48 285,24 332,159 48,136 -24,285 -159,332 -88,31 -182,12 -250,-43 -53,-43 -23,-41 -96,-15l-501 176c-47,17 -97,-3 -112,-44l0 0c-13,-37 8,-79 48,-99 7,-27 15,-55 22,-82 2,-7 8,-10 12,-6 8,6 15,11 23,17 12,9 9,9 13,-5 2,-8 4,-17 7,-25 2,-7 8,-10 12,-6 14,10 27,20 41,30 23,17 17,18 25,-10 2,-8 4,-15 6,-23 2,-7 7,-10 13,-6 5,4 11,8 16,12 26,19 19,18 28,-15 5,-18 9,-35 14,-53 2,-7 8,-10 12,-6 18,13 14,15 20,-5 2,-7 7,-10 13,-6 15,11 31,23 46,34 24,18 19,20 26,-9 2,-7 4,-13 5,-20 2,-7 7,-10 12,-6 7,5 14,10 21,15 17,12 14,16 19,-3 0,-2 1,-3 1,-5 2,-7 7,-10 12,-6 4,3 8,6 11,8 19,14 14,14 20,-9l11 -42c2,-7 7,-10 12,-6l29 21c27,20 35,5 43,1 8,-4 15,2 18,-27 8,-100 73,-190 173,-225zm-165 307c-23,15 -47,18 -70,10 -6,15 -15,27 -35,35 -14,5 -25,5 -36,3 -4,2 -8,4 -12,5 -12,4 -21,4 -30,2 -6,8 -15,15 -28,19 -33,11 -52,-4 -75,-21 -2,-2 -5,-3 -7,-5 -1,0 -2,1 -2,1 0,0 0,0 0,0 -1,2 -1,5 -2,7 -8,29 -10,54 -44,68 -13,5 -23,6 -34,4 -6,10 -15,18 -30,23 -26,9 -43,2 -61,-11 -5,5 -12,8 -20,11 -9,3 -17,4 -24,4 -2,7 -4,14 -5,20l-7 26 -24 12c-7,4 -21,15 -18,25 4,11 26,10 35,7l501 -176c29,-10 59,-27 91,-20 27,7 43,28 63,45 54,44 127,56 193,33 105,-37 159,-151 123,-256 -37,-105 -151,-159 -256,-123 -75,26 -127,94 -134,174 -3,37 -17,66 -52,77zm731 479c-6,-8 -16,-13 -26,-13 -80,0 -134,-43 -197,-93 -14,-11 -28,-22 -42,-32 -58,-43 -132,-88 -238,-88 -46,0 -81,0 -109,1l-223 0c-50,0 -91,43 -91,95 0,53 41,95 91,95l206 0c26,6 45,31 45,61 0,22 -10,41 -27,53l-76 22c-26,7 -52,14 -79,22l-5 2c-142,40 -190,53 -205,57 -6,0 -11,0 -15,-1l-324 -224 -59 -46c-1,-1 -2,-2 -3,-2 -3,-2 -6,-4 -10,-6 -7,-4 -13,-6 -19,-9 -5,-2 -10,-3 -16,-4 -16,-2 -27,-2 -40,1 -65,7 -115,64 -115,133 0,35 13,68 37,93 0,1 1,1 2,2 9,9 18,16 28,22l538 416c3,2 6,4 10,5l5 2c17,6 32,9 48,9 9,0 19,-1 29,-3 1,0 1,0 2,0l2 -1c193,-52 541,-147 707,-190 1,0 2,-1 3,-1l11 -4c57,-15 103,-24 129,-24 18,0 32,-14 32,-32l0 -21c0,-2 0,-4 0,-6l0 -268c1,-9 -1,-17 -6,-24z"/>
   </g>
   <path class="fil0" d="M20251 9689c611,0 1106,495 1106,1106 0,611 -495,1106 -1106,1106 -611,0 -1106,-495 -1106,-1106 0,-611 495,-1106 1106,-1106zm0 65c575,0 1041,466 1041,1041 0,575 -466,1041 -1041,1041 -575,0 -1041,-466 -1041,-1041 0,-575 466,-1041 1041,-1041z"/>
   <g>
    <path class="fil0" d="M4482 9689c611,0 1106,495 1106,1106 0,611 -495,1106 -1106,1106 -611,0 -1106,-495 -1106,-1106 0,-611 495,-1106 1106,-1106zm0 65c575,0 1041,466 1041,1041 0,575 -466,1041 -1041,1041 -575,0 -1041,-466 -1041,-1041 0,-575 466,-1041 1041,-1041z"/>
    <path class="fil1" d="M4287 11401l-590 0c16,21 33,41 50,60l540 0 0 180c0,74 60,134 134,134l252 0 1 0c56,-11 110,-26 164,-47l31 -12 -446 0c-42,0 -76,-34 -76,-76l0 -653c0,-42 34,-76 76,-76l218 0c16,0 29,-13 29,-29l0 -66c0,-61 49,-111 110,-111l355 0c61,0 110,50 110,111l0 66c0,16 13,29 29,29l201 0 1 -5c2,-15 3,-31 4,-47l0 -6 -177 0 0 -37c0,-93 -75,-169 -168,-169l-355 0c-80,0 -147,56 -164,131 -77,-40 -178,-55 -300,-47 104,-71 172,-191 172,-326 0,-217 -176,-394 -393,-394 -217,0 -393,177 -393,394 0,128 62,243 157,315 -91,-9 -261,-6 -365,122 2,33 5,66 10,98 92,-199 331,-166 390,-155l182 359c5,10 15,16 27,16 0,0 0,0 0,0 11,0 21,-6 27,-16l181 -353c129,-10 230,7 302,53l0 8 -189 0c-74,0 -134,60 -134,134l0 413zm846 -642l-355 0c-32,0 -58,26 -58,58l0 66c0,13 10,23 23,23l88 0c0,0 1,0 1,0l18 0c0,0 1,0 1,0l28 0c0,0 1,0 1,0l149 0c0,0 1,0 1,0l28 0c0,0 1,0 1,0l18 0c0,0 1,0 1,0l88 0c13,0 23,-10 23,-23l0 -66c0,-32 -26,-58 -58,-58zm12 101l-66 0c0,0 -1,0 -1,0l-15 0c0,0 -1,0 -1,0l-31 0c0,0 -1,0 -1,0l-147 0c0,0 -1,0 -1,0l-31 0c0,0 -1,0 -1,0l-15 0c0,0 -1,0 -1,0l-66 0 0 -43c0,-6 5,-12 12,-12l355 0c6,0 12,5 12,12l0 43zm-1098 0l-18 68 -77 -153c20,8 40,14 61,18 -1,4 -1,8 -1,12 0,24 15,45 35,55zm109 -2c19,-10 32,-30 32,-53 0,-5 -1,-10 -2,-15 24,-6 47,-14 68,-24l-73 143 -25 -51zm-105 -53c0,-11 9,-20 20,-20l57 0c11,0 20,9 20,20 0,11 -9,20 -20,20l-57 0c-11,0 -20,-9 -20,-20zm35 60l29 0 43 88 -58 114 -44 -86 30 -116zm-331 -458c0,-186 151,-338 337,-338 186,0 337,152 337,338 0,186 -150,337 -335,338l-3 0c-185,-1 -335,-152 -335,-338z"/>
   </g>
   <g>
    <path class="fil2" d="M19290 10667l111 2c11,19 23,31 37,50 9,12 30,35 35,48l-187 2 0 29 283 1 -52 107c-28,0 -75,9 -97,-7 -17,-12 -46,-30 -70,1 -39,50 46,116 81,35l104 0c5,-17 61,-124 69,-136l117 -2 5 -29 -206 0c-16,-18 -36,-44 -52,-64 -19,-24 -34,-39 -49,-63l-125 2c0,18 3,14 -5,25z"/>
    <path class="fil2" d="M19463 10473c-60,16 -32,106 27,85 49,-17 29,-100 -27,-85z"/>
    <path class="fil2" d="M19516 11070c10,-25 -4,-49 -23,-57 -25,-11 -51,1 -60,22 -27,64 65,81 83,35z"/>
    <path class="fil2" d="M19356 11156c2,16 26,65 33,79 69,-3 48,-116 -33,-79z"/>
    <path class="fil2" d="M19361 10419c48,43 107,-51 38,-78 -14,10 -34,63 -38,78z"/>
    <path class="fil2" d="M19314 10558c13,-4 20,-8 26,-23 7,-19 5,-31 -7,-43 -4,8 -18,55 -19,66z"/>
    <path class="fil2" d="M19326 11074c12,-24 9,-38 -13,-53 0,21 5,38 13,53z"/>
   </g>
   <path class="fil3" d="M20204 11058c3,-47 19,-53 63,-53 43,0 86,1 129,1 31,0 110,2 138,-6 92,-28 117,-170 0,-172 -100,-2 -256,24 -271,-116 -11,-102 78,-195 178,-200 62,-3 124,0 186,0 25,0 76,-11 89,18 5,11 8,24 2,36 -33,58 -288,-32 -361,65 -26,35 -27,94 17,115 31,15 129,8 167,8 137,1 168,100 129,216l0 1 -1 1c-47,74 -94,109 -186,109 -48,0 -97,0 -145,0 -33,0 -108,11 -130,-16l-2 -3 0 -4zm591 -219c-27,64 -27,159 63,165 65,4 232,-13 281,8l1 1 1 1c18,14 17,33 2,49l-1 1 -1 1c-42,23 -87,16 -133,16 -124,0 -288,31 -305,-138l0 -1 0 -1c4,-67 36,-270 67,-325 68,-119 173,-101 293,-104 184,-5 170,156 137,287 -12,48 -49,39 -88,39l-318 2zm-1011 214l-34 195c-6,33 -4,33 -22,61l-3 4 -5 0c-83,6 -46,-74 -38,-119l74 -427 0 -1c17,-58 32,-148 69,-194 44,-54 122,-60 187,-60 50,0 110,-8 156,15 104,52 72,169 55,261 -35,186 -46,293 -269,293 -83,0 -101,8 -170,-28zm1349 -293c6,-38 22,-115 4,-142 -22,-34 -117,-32 -152,-32 -140,0 -162,51 -177,174l325 0zm-1192 -168c-56,12 -82,43 -93,98 -12,57 -21,114 -31,172 -8,46 -22,112 32,135 25,10 159,10 187,4 47,-10 79,-53 88,-99 12,-57 20,-115 30,-172 8,-46 20,-112 -34,-134 -26,-11 -151,-10 -180,-3z"/>
   <g>
    <path class="fil0" d="M23458 9689c611,0 1106,495 1106,1106 0,611 -495,1106 -1106,1106 -611,0 -1106,-495 -1106,-1106 0,-611 495,-1106 1106,-1106zm0 65c575,0 1041,466 1041,1041 0,575 -466,1041 -1041,1041 -575,0 -1041,-466 -1041,-1041 0,-575 466,-1041 1041,-1041z"/>
    <path class="fil1" d="M23796 11176c-15,-61 -42,-130 -89,-188 25,-54 54,-92 71,-112 156,109 316,33 373,-1 89,96 106,240 109,301l-465 0zm322 -513c-42,42 -98,66 -158,66l0 0c-123,0 -223,-100 -223,-224 0,-60 23,-116 65,-158 42,-42 98,-66 158,-66 123,0 223,100 223,224 0,60 -23,116 -65,158zm-505 134c-42,42 -98,66 -158,66l0 0c-123,0 -223,-100 -223,-224 0,-60 23,-116 65,-158 42,-42 98,-66 158,-66 123,0 223,100 223,224 0,60 -23,116 -65,158zm-500 -134c-42,42 -98,66 -158,66l0 0c-123,0 -223,-100 -223,-224 0,-60 23,-116 65,-158 42,-42 98,-66 158,-66 123,0 223,100 223,224 0,60 -23,116 -65,158zm848 -442c-75,0 -147,30 -200,83 -45,45 -72,102 -80,163 -52,-68 -133,-113 -225,-113 -75,0 -147,30 -200,83 -7,7 -14,15 -21,23 -21,-136 -138,-240 -279,-240 -76,0 -147,30 -200,83 -53,54 -83,125 -83,201 0,156 127,283 283,283l0 0c75,0 146,-30 200,-83 7,-7 14,-15 21,-23 21,136 138,240 279,240l0 0c75,0 146,-30 200,-83 45,-45 72,-102 80,-163 52,68 133,113 225,113l0 0c75,0 146,-30 200,-83 54,-54 83,-125 83,-200 0,-156 -127,-284 -283,-284zm-805 1089c11,-161 84,-262 118,-300 156,109 316,33 373,-1 89,96 106,240 109,301l-600 0zm-37 -134l-463 0c11,-161 84,-262 118,-300 156,109 316,33 373,-1 31,33 53,72 69,111 -30,37 -71,100 -97,190zm1203 31c0,-10 7,-253 -145,-393 -11,-10 -27,-11 -38,-2 -2,1 -179,134 -343,0 -11,-9 -28,-9 -38,1 -4,3 -52,46 -94,129 -10,-4 -21,-3 -30,4 -7,6 -179,134 -343,0 -8,-7 -19,-8 -28,-5 -21,-45 -50,-90 -91,-127 -11,-10 -27,-11 -38,-2 -2,1 -179,134 -343,0 -11,-9 -28,-9 -38,1 -6,5 -152,136 -156,392 0,8 3,16 9,21 6,6 13,9 21,9l480 0c-6,32 -9,66 -10,104 0,8 3,16 9,21 6,6 13,9 21,9l662 0c16,0 29,-13 30,-29 0,-4 1,-47 -8,-105l483 0c16,0 29,-13 30,-29z"/>
   </g>
  </g>
 </g>
</svg>
